<svg width="30" height="30" viewBox="0 0 30 30" fill="none" xmlns="http://www.w3.org/2000/svg">
<path d="M22.3386 7.38636L21.3375 22.4025C21.2499 23.7176 21.206 24.3752 20.922 24.8739C20.6719 25.3129 20.2946 25.6657 19.84 25.8861C19.3236 26.1364 18.6645 26.1364 17.3464 26.1364H12.3308C11.0127 26.1364 10.3536 26.1364 9.83723 25.8861C9.38259 25.6657 9.00536 25.3129 8.75527 24.8739C8.47121 24.3752 8.42737 23.7176 8.3397 22.4025L7.33862 7.38636M4.83862 7.38636H24.8386M19.8386 7.38636L19.5004 6.37145C19.1725 5.38792 19.0085 4.89616 18.7045 4.53259C18.436 4.21152 18.0912 3.96301 17.7017 3.80984C17.2606 3.63636 16.7424 3.63636 15.7056 3.63636H13.9716C12.9349 3.63636 12.4166 3.63636 11.9755 3.80984C11.586 3.96301 11.2412 4.21152 10.9727 4.53259C10.6687 4.89616 10.5048 5.38792 10.1769 6.37145L9.83862 7.38636" stroke="white" stroke-width="3" stroke-linecap="round" stroke-linejoin="round"/>
</svg>
